PathFileType	4	(X/Y/Z)	C:\Users\Basilio\Documents\Thesis Gigler\squatting_fais\c3dfiles\077\SLS_back_pre5\markers_experimental.trc
DataRate	CameraRate	NumFrames	NumMarkers	Units	OrigDataRate	OrigDataStartFrame	OrigNumFrames
200.000000	200.000000	4	60	mm	200.000000	591	1578
Frame#	Time	FHD			RBHD			C7			T10			CLAV			LSHO			LUUPA			LMUPA			LDUPA			LLEP			LMEP			LRAD			LUL			LRFIN			RSHO			RUPA1			RMUPA			RDUPA			RLEP			RMEP			RRAD			RUL			RUFIN			LASI			RASI			USACR			LSACR			RSACR			LTHI1			LTHI2			LTHI3			LTHI4			LLFC			LMFC			LTIB1			LTIB2			LTIB3			LTIB4			LLMAL			LHEE			LMT1			LMT2			LMT5			RTHI			RTHI2			RTHI3			RTHI4			RLFC			RMFC			RTIB1			RTIB2			RTIB3			RTIB4			RLMAL			RMMAL			RHEE			RMT1			RMT2			RMT5			LBHD			
		X1	Y1	Z1	X2	Y2	Z2	X3	Y3	Z3	X4	Y4	Z4	X5	Y5	Z5	X6	Y6	Z6	X7	Y7	Z7	X8	Y8	Z8	X9	Y9	Z9	X10	Y10	Z10	X11	Y11	Z11	X12	Y12	Z12	X13	Y13	Z13	X14	Y14	Z14	X15	Y15	Z15	X16	Y16	Z16	X17	Y17	Z17	X18	Y18	Z18	X19	Y19	Z19	X20	Y20	Z20	X21	Y21	Z21	X22	Y22	Z22	X23	Y23	Z23	X24	Y24	Z24	X25	Y25	Z25	X26	Y26	Z26	X27	Y27	Z27	X28	Y28	Z28	X29	Y29	Z29	X30	Y30	Z30	X31	Y31	Z31	X32	Y32	Z32	X33	Y33	Z33	X34	Y34	Z34	X35	Y35	Z35	X36	Y36	Z36	X37	Y37	Z37	X38	Y38	Z38	X39	Y39	Z39	X40	Y40	Z40	X41	Y41	Z41	X42	Y42	Z42	X43	Y43	Z43	X44	Y44	Z44	X45	Y45	Z45	X46	Y46	Z46	X47	Y47	Z47	X48	Y48	Z48	X49	Y49	Z49	X50	Y50	Z50	X51	Y51	Z51	X52	Y52	Z52	X53	Y53	Z53	X54	Y54	Z54	X55	Y55	Z55	X56	Y56	Z56	X57	Y57	Z57	X58	Y58	Z58	X59	Y59	Z59	X60	Y60	Z60	

592	2.955	-220.7671508789063	1856.579711914063	-1098.955322265625	-363.8265380859376	1742.250732421875	-1017.095275878906	-404.5213623046876	1595.013671875	-1101.990356445313	-387.1688842773439	1261.77880859375	-1071.480346679688	-237.9740142822266	1559.618408203125	-1095.384643554688	-279.0882873535157	1590.474609375	-1269.522216796875	-116.1008605957032	1537.050170898438	-1380.965209960938	-86.9381561279297	1572.1962890625	-1360.736938476563	-48.434627532959	1536.99658203125	-1393.277099609375	15.74578475952149	1548.8095703125	-1394.81689453125	25.75228691101075	1481.3984375	-1363.220336914063	314.9764404296876	1596.37060546875	-1296.884521484375	312.8789367675782	1592.222290039063	-1376.540161132813	409.6859741210939	1625.825317382813	-1315.984619140625	-272.4353332519532	1602.388671875	-931.3547363281252	-122.7435379028321	1565.571166992188	-810.374938964844	-95.2563934326172	1594.451538085938	-838.146423339844	-53.89015197753908	1568.464599609375	-800.7132568359377	13.07479286193848	1576.405029296875	-806.7303466796877	21.07094764709473	1503.555419921875	-833.244567871094	295.6713562011719	1609.876708984375	-909.7090454101565	307.6376647949219	1621.206420898438	-832.3880615234377	388.6305236816407	1641.923828125	-912.9167480468752	-201.7006072998047	1050.879516601563	-1191.792236328125	-202.2500152587891	1093.687133789063	-911.3359985351565	-397.1461486816407	1172.721801757813	-1060.714965820313	-401.7474670410157	1140.750366210938	-1087.935546875	-406.068572998047	1142.690185546875	-1031.905639648438	-270.1681518554688	839.7786865234377	-1229.81494140625	-238.4253845214844	762.0225830078126	-1222.294799804688	-189.984603881836	765.7388916015626	-1220.602783203125	-264.8951721191407	710.5629272460939	-1203.034301757813	-232.4011993408204	565.4597778320314	-1170.085327148438	-218.9401245117188	556.9201660156251	-1037.835815429688	-229.5802001953126	346.7131652832032	-1078.327514648438	-269.8861083984376	300.6245422363282	-1143.273559570313	-237.8527984619141	296.4266662597657	-1109.005004882813	-257.1601867675782	223.7645416259766	-1068.340454101563	-336.4896850585938	111.7103118896485	-1100.529541015625	-395.871307373047	84.37207794189455	-1044.88623046875	-186.6432495117188	56.00808715820314	-1024.049194335938	-180.7227020263672	56.64897918701173	-1066.730224609375	-305.5476989746094	130.0849151611328	-1017.593017578125	-164.5426483154297	803.3411865234377	-799.8065185546877	-103.0503692626953	770.0249023437502	-795.2563476562502	-73.25532531738283	783.715026855469	-803.3973388671877	-102.42919921875	687.6889038085939	-798.7919921875002	-105.97509765625	650.0755004882814	-799.738464355469	-82.39328765869142	613.5722045898439	-924.915466308594	-204.4227905273438	565.3190307617189	-835.8391113281252	-298.5383300781251	611.3756713867189	-817.7656860351565	-290.8796997070313	568.4784545898439	-835.7785644531252	-326.6072387695313	555.2287597656251	-882.7736816406252	-516.7058715820314	589.3543701171876	-870.3851318359377	-491.7194213867189	563.4086303710939	-956.4783935546877	-542.6145629882814	652.1212158203126	-930.9708251953127	-567.5997924804689	428.550018310547	-940.5950927734377	-572.2321166992189	427.6127929687501	-902.6692504882815	-599.0315551757814	446.2092895507814	-856.9600219726565	-361.4177551269532	1745.842407226563	-1164.002563476563	
593	2.96	-219.5767822265626	1855.712524414063	-1099.03857421875	-363.3106994628907	1742.058349609375	-1017.271789550781	-404.0227966308595	1594.955200195313	-1102.14794921875	-387.1618957519532	1261.65576171875	-1071.526000976563	-237.7000885009766	1559.15234375	-1095.515869140625	-278.6731567382813	1590.13623046875	-1269.632202148438	-115.7630004882813	1536.678955078125	-1381.037719726563	-86.41895294189455	1571.743774414063	-1360.7578125	-48.32907485961915	1536.685791015625	-1393.421508789063	16.38463211059571	1548.141723632813	-1394.633056640625	26.09810066223145	1481.012939453125	-1363.454223632813	315.3839416503907	1595.620483398438	-1297.071655273438	313.3310546875001	1591.4130859375	-1376.61865234375	409.3718261718751	1624.673583984375	-1315.9541015625	-271.9300537109376	1602.200317382813	-931.4804687500002	-122.2551498413086	1565.430053710938	-810.4946899414065	-94.78855133056642	1593.99658203125	-838.2651977539065	-53.50998687744142	1568.119140625	-800.903991699219	13.4519100189209	1575.974609375	-806.9495849609377	21.43767356872559	1503.179565429688	-833.4287109375002	296.0256042480469	1608.741333007813	-909.7341308593752	308.0800781250001	1620.359497070313	-832.7031250000002	389.0231933593751	1641.232055664063	-913.373474121094	-202.1314086914063	1050.61474609375	-1191.719848632813	-202.9122619628907	1093.06689453125	-911.2604980468752	-397.4305419921876	1172.77001953125	-1060.744873046875	-402.0112304687501	1140.68603515625	-1087.927368164063	-406.4244689941407	1142.585083007813	-1031.968872070313	-270.0504455566407	839.5625610351565	-1230.01806640625	-237.7866210937501	761.3629760742189	-1222.00927734375	-189.8550262451172	766.1345214843751	-1220.890014648438	-264.2815246582032	710.2647705078126	-1203.3916015625	-231.7969970703126	565.4066772460939	-1170.455322265625	-218.0077667236329	556.8550415039064	-1038.229736328125	-229.2226562500001	346.5742797851563	-1078.53955078125	-269.5739746093751	300.5516052246094	-1143.487182617188	-237.4981079101563	296.0383605957032	-1109.099609375	-256.9638671875001	223.6705474853516	-1068.514892578125	-336.4699096679688	111.8253173828125	-1100.621215820313	-395.802703857422	84.36293792724611	-1044.884643554688	-186.6638946533203	56.00157165527345	-1024.06201171875	-180.718490600586	56.71561431884767	-1066.705810546875	-305.4449157714844	130.0589752197266	-1017.703918457031	-166.0099334716797	802.3311767578127	-800.0419921875002	-104.743637084961	768.7751464843752	-795.410827636719	-74.90707397460939	782.4376220703127	-803.3764648437502	-104.3447189331055	686.5707397460939	-799.0493774414065	-107.8929061889649	648.9966430664064	-800.1287841796877	-84.32669830322267	612.3815917968751	-925.1689453125002	-206.6434326171876	564.5634765625001	-836.344177246094	-300.5337524414063	610.7756347656251	-818.1193847656252	-293.0999145507813	567.8099975585939	-836.464538574219	-328.9270324707032	554.7962646484376	-883.127380371094	-518.9310913085939	589.1489257812501	-871.0960693359377	-494.5727539062501	563.6548461914064	-957.5963134765627	-544.7807617187501	652.3985595703126	-931.5430297851565	-569.9755249023439	428.6690979003907	-941.5545654296877	-574.8982543945314	427.7833251953126	-903.8381347656252	-601.5509033203126	446.1742553710939	-858.012634277344	-360.6420593261719	1745.3291015625	-1164.187622070313	
594	2.965	-218.986068725586	1855.4697265625	-1099.217895507813	-362.7571411132813	1741.815307617188	-1017.446044921875	-403.6124267578126	1594.867065429688	-1102.257690429688	-387.2354431152345	1261.480590820313	-1071.525756835938	-237.4029693603516	1558.632446289063	-1095.626831054688	-278.3675537109376	1589.912475585938	-1269.71435546875	-115.3638381958008	1536.304077148438	-1381.131713867188	-85.99015045166017	1571.400634765625	-1360.797973632813	-47.83379745483399	1536.19384765625	-1393.390625	16.60717201232911	1547.711059570313	-1394.663330078125	26.39198303222657	1480.421508789063	-1363.54736328125	315.8919982910157	1594.836059570313	-1297.167236328125	313.9031677246094	1590.944702148438	-1376.87939453125	409.5368652343751	1624.292358398438	-1316.03564453125	-271.4968872070313	1602.0380859375	-931.6716308593752	-122.0929489135742	1565.377685546875	-809.8599243164065	-94.3534622192383	1593.62255859375	-838.4968261718752	-53.03720855712892	1567.813598632813	-801.082214355469	13.97970485687256	1575.657836914063	-806.9743652343752	21.78646850585938	1502.83056640625	-833.6855468750002	296.6127319335938	1608.684204101563	-910.3767700195315	308.5780029296876	1619.596801757813	-832.9400634765627	389.536102294922	1640.624267578125	-913.635925292969	-202.3685455322266	1050.3095703125	-1191.547119140625	-203.4147491455079	1092.594848632813	-911.1577148437502	-397.652313232422	1172.68701171875	-1060.776123046875	-402.307830810547	1140.69140625	-1088.057495117188	-406.7365722656251	1142.429443359375	-1032.032836914063	-270.1781921386719	839.3250122070315	-1230.265014648438	-237.4801330566407	761.3242187500001	-1222.137451171875	-189.6298522949219	766.0554809570314	-1221.0830078125	-263.9073181152344	710.0855102539064	-1203.675170898438	-231.0529479980469	565.1420288085939	-1170.7724609375	-217.2396850585938	556.6812133789064	-1038.614990234375	-228.7884368896485	346.3251647949219	-1078.754028320313	-269.1719360351563	300.4275512695313	-1143.722778320313	-237.3380432128907	295.9274902343751	-1109.380126953125	-256.7095336914063	223.4937896728516	-1068.61572265625	-336.5188903808594	111.7385787963867	-1100.736694335938	-395.8162841796876	84.42303466796876	-1044.944458007813	-186.6952056884766	56.02757263183595	-1024.074951171875	-180.6575164794922	56.60956954956056	-1066.738525390625	-305.3527832031251	130.0701599121094	-1017.830383300781	-167.6004791259766	801.3756103515627	-800.2275390625002	-106.3966598510742	767.5275878906251	-795.7587890625002	-76.48303985595705	781.172546386719	-803.5627441406252	-106.1605834960938	685.4002075195314	-799.3458251953127	-109.9139785766602	647.7641601562501	-800.475280761719	-86.62447357177736	611.3625488281251	-925.530700683594	-208.813949584961	563.6884155273439	-836.6978759765627	-302.8872680664063	610.0770874023439	-818.6765136718752	-295.2920837402344	567.0105590820314	-836.9292602539065	-331.1258544921876	554.1208496093751	-883.764831542969	-521.0654907226564	589.0486450195314	-871.6772460937502	-496.2681579589845	563.3825073242189	-958.178161621094	-546.5473632812501	652.2509155273439	-932.0109863281252	-572.4545898437501	428.7310485839845	-942.3519287109377	-577.4663085937501	427.7930908203126	-904.937194824219	-604.1178588867189	446.1406250000001	-859.0000610351565	-360.1369628906251	1744.925537109375	-1164.331176757813	
595	2.97	-218.216781616211	1855.04638671875	-1099.342651367188	-362.2059326171876	1741.6162109375	-1017.681457519531	-403.231414794922	1594.617065429688	-1102.35546875	-387.2216796875001	1261.395141601563	-1071.551879882813	-237.0430450439454	1558.298583984375	-1095.667236328125	-278.0359802246094	1589.468383789063	-1269.863525390625	-114.7079620361328	1535.636108398438	-1381.10107421875	-85.53801727294923	1570.97314453125	-1360.947998046875	-47.11980056762696	1535.629272460938	-1393.270629882813	16.85419845581055	1547.223510742188	-1394.752807617188	26.74362182617188	1479.83984375	-1363.37109375	316.4583129882813	1594.07421875	-1297.205444335938	314.6943664550782	1590.18017578125	-1376.802978515625	410.2734375000001	1623.675415039063	-1316.008666992188	-271.0245666503907	1601.8212890625	-931.8488769531252	-121.6270370483399	1565.148559570313	-810.008483886719	-93.86424255371095	1593.509521484375	-838.638854980469	-52.62363815307619	1567.614379882813	-801.3240356445315	14.487135887146	1575.214965820313	-807.0313720703127	22.15533065795899	1502.374633789063	-833.8193969726565	297.0858764648438	1607.812255859375	-910.586364746094	309.0029907226563	1618.94287109375	-833.2872314453127	389.9498596191407	1639.915893554688	-914.0539550781252	-202.7960052490235	1049.999877929688	-1191.3994140625	-203.9129638671876	1092.058837890625	-911.0810546875002	-397.9818115234376	1172.63671875	-1060.72998046875	-402.5352783203126	1140.662841796875	-1088.107543945313	-407.1242675781251	1142.426635742188	-1032.02880859375	-270.0562438964844	839.1674804687502	-1230.423461914063	-237.0968170166016	761.1674804687501	-1222.379516601563	-189.2881927490235	765.9233398437501	-1221.139282226563	-263.5766601562501	709.8735961914064	-1203.952270507813	-230.5904388427735	565.0269775390626	-1171.033813476563	-216.2551727294922	556.3336181640626	-1039.078735351563	-228.4103546142579	346.1726379394532	-1078.889038085938	-268.9562377929688	300.2465209960938	-1143.861083984375	-237.0869293212891	295.8921203613282	-1109.62060546875	-256.5089111328126	223.4029998779297	-1068.787475585938	-336.3890380859376	111.8292846679688	-1100.84765625	-395.8442993164064	84.49642181396486	-1044.965209960938	-186.7100219726563	56.09068679809572	-1024.142700195313	-180.5538177490235	56.4894485473633	-1066.716918945313	-305.2482604980469	130.1194152832032	-1017.953308105469	-169.0967407226563	800.4376220703127	-800.5075683593752	-108.0569610595703	766.3099365234376	-795.8108520507815	-77.95581817626955	780.0471191406252	-803.7088623046877	-108.0589294433594	684.1928100585939	-799.5566406250002	-112.0496444702149	646.5547485351564	-800.7808227539065	-88.80800628662111	610.2152099609376	-925.9497070312502	-211.071517944336	562.5557861328126	-837.1184082031252	-304.9556884765626	609.4997558593751	-819.1812133789065	-297.6460266113282	566.7235717773439	-837.3479003906252	-333.4094543457032	553.6983642578126	-884.2219238281252	-523.2004394531251	589.1069335937501	-872.353210449219	-498.8352355957032	563.4224243164064	-958.8657836914065	-548.5322875976564	652.3489379882814	-932.505554199219	-575.0636596679689	428.7935180664064	-943.652038574219	-580.0306396484376	428.0108032226564	-905.9731445312502	-606.6546020507814	446.1433715820314	-860.0769653320315	-359.7028503417969	1744.82763671875	-1164.572998046875	
